<svg xmlns="http://www.w3.org/2000/svg" xmlns:xlink="http://www.w3.org/1999/xlink" version="1.1" width="1000" height="1000" viewBox="0 0 1000 1000" xml:space="preserve">
<desc>Created with Fabric.js 3.5.0</desc>
<defs>
</defs>
<rect x="0" y="0" width="100%" height="100%" fill="rgba(102,51,102,0)"/>
<g transform="matrix(1.2517 0 0 1.2517 502.0461 502.0461)" id="721072">
<g style="" vector-effect="non-scaling-stroke">
		<g transform="matrix(33.3333 0 0 33.3333 166.6665 0)">
<path style="stroke: rgb(255,255,255); stroke-width: 2; stroke-dasharray: none; stroke-linecap: round; stroke-dashoffset: 0; stroke-linejoin: round; stroke-miterlimit: 4; is-custom-font: none; font-file-url: none; fill: none; fill-rule: nonzero; opacity: 1;" transform=" translate(-17, -12)" d="M 21 12 L 13 12" stroke-linecap="round"/>
</g>
		<g transform="matrix(33.3333 0 0 33.3333 249.15 -0.0001)">
<path style="stroke: rgb(255,255,255); stroke-width: 2; stroke-dasharray: none; stroke-linecap: round; stroke-dashoffset: 0; stroke-linejoin: round; stroke-miterlimit: 4; is-custom-font: none; font-file-url: none; fill: none; fill-rule: nonzero; opacity: 1;" transform=" translate(-19.4745, -12)" d="M 18 15 L 20.913 12.087 V 12.087 C 20.961 12.039 20.961 11.961 20.913 11.913 V 11.913 L 18 9" stroke-linecap="round"/>
</g>
		<g transform="matrix(33.3333 0 0 33.3333 -83.3336 -0.0003)">
<path style="stroke: rgb(255,255,255); stroke-width: 2; stroke-dasharray: none; stroke-linecap: round; stroke-dashoffset: 0; stroke-linejoin: round; stroke-miterlimit: 4; is-custom-font: none; font-file-url: none; fill: none; fill-rule: nonzero; opacity: 1;" transform=" translate(-9.5, -12)" d="M 16 5 V 4.5 V 4.5 C 16 3.67157 15.3284 3 14.5 3 H 5 C 3.89543 3 3 3.89543 3 5 V 19 C 3 20.1046 3.89543 21 5 21 H 14.5 C 15.3284 21 16 20.3284 16 19.5 V 19.5 V 19" stroke-linecap="round"/>
</g>
</g>
</g>
</svg>